<svg width="2682" height="1691" xmlns="http://www.w3.org/2000/svg" xmlns:xlink="http://www.w3.org/1999/xlink" xml:space="preserve" overflow="hidden"><defs><clipPath id="clip0"><rect x="815" y="458" width="2682" height="1691"/></clipPath></defs><g clip-path="url(#clip0)" transform="translate(-815 -458)"><path d="M1224.78 1181.96 1114.03 1181.96 1114.03 1115.32 1224.78 1115.32 1224.78 1181.96ZM1224.78 1270.82 1114.03 1270.82 1114.03 1204.18 1224.78 1204.18 1224.78 1270.82ZM1224.78 1359.68 1114.03 1359.68 1114.03 1293.04 1224.78 1293.04 1224.78 1359.68ZM981.125 1359.68 981.125 1293.04 1091.88 1293.04 1091.88 1359.68 981.125 1359.68ZM848.225 1359.68 848.225 1293.04 958.975 1293.04 958.975 1359.68 848.225 1359.68ZM848.225 1204.18 958.975 1204.18 958.975 1270.82 848.225 1270.82 848.225 1204.18ZM848.225 1115.32 958.975 1115.32 958.975 1181.96 848.225 1181.96 848.225 1115.32ZM1091.88 1204.18 1091.88 1270.82 981.125 1270.82 981.125 1204.18 1091.88 1204.18ZM1091.88 1115.32 1091.88 1181.96 981.125 1181.96 981.125 1115.32 1091.88 1115.32ZM815 1082 815 1393 1258 1393 1258 1082 815 1082Z" fill="#BFBFBF" fill-rule="evenodd"/><path d="M3173.17 1296.61C3160.39 1291.94 3149.97 1282.41 3144.17 1270.11 3136.35 1252.71 3138.37 1232.48 3149.45 1216.96 3160.75 1201.65 3179.61 1193.88 3198.42 1196.78L3213.2 1199.23 3213.2 1183.13C3213.33 1153.65 3233.38 1127.98 3261.96 1120.7 3290.63 1113.79 3320.27 1127.61 3333.41 1154L3338.45 1164.03 3348.9 1160.32C3364.53 1154.81 3381.88 1157.23 3395.41 1166.81 3408.86 1176.66 3416.82 1192.31 3416.85 1208.97L3416.85 1221.96 3433.84 1221.96C3455.41 1222.77 3472.25 1240.91 3471.44 1262.47 3470.67 1283.07 3454.03 1299.52 3433.42 1300.07L3411.56 1300.07 3357.6 1299.98 3357.6 1325.92 3389.45 1326 3433.42 1326C3469.37 1325.15 3497.83 1295.33 3496.98 1259.39 3496.23 1227.68 3472.73 1201.13 3441.33 1196.53 3438.02 1176.18 3426.83 1157.94 3410.19 1145.76 3392.96 1133.57 3371.45 1129.05 3350.77 1133.27 3330.42 1101.87 3292.48 1086.71 3256.09 1095.44 3220.54 1104.5 3193.94 1134.06 3188.68 1170.35 3165.13 1171.07 3143.19 1182.48 3129.09 1201.36 3112.36 1224.6 3109.31 1255.01 3121.1 1281.11 3133.11 1306.84 3158.28 1323.91 3186.64 1325.56L3217.2 1325.56 3249.34 1325.65 3249.34 1299.79 3195.21 1299.7 3187.72 1299.7C3182.98 1299.4 3178.31 1298.44 3173.83 1296.87Z" fill="#BFBFBF" fill-rule="evenodd"/><path d="M3336.87 1375 3336.87 1275.5 3389 1275.5 3303.5 1176 3218 1275.5 3270.13 1275.5 3270.13 1375 3336.87 1375Z" fill="#BFBFBF" fill-rule="evenodd"/><g><g><g><path d="M1478.75 1371.36 1374.89 1371.36 1374.89 1269.26 1422.42 1269.26 1422.42 1265.74 1374.89 1265.74 1374.89 697.125 1371.36 697.125 1371.36 1265.74 1269.26 1265.74 1269.26 1163.64 1348.48 1163.64 1348.48 1160.11 1269.26 1160.11 1269.26 1058.01 1309.75 1058.01 1309.75 1054.49 1269.26 1054.49 1269.26 648.538 1265.74 648.538 1265.74 1054.49 1163.64 1054.49 1163.64 952.385 1253.42 952.385 1253.42 948.865 1163.64 948.865 1163.64 846.76 1197.08 846.76 1197.08 843.24 1163.64 843.24 1163.64 599.95 1160.11 599.95 1160.11 843.24 1058.01 843.24 1058.01 741.135 1140.75 741.135 1140.75 737.615 1058.01 737.615 1058.01 635.51 1084.42 635.51 1084.42 631.99 1058.01 631.99 1058.01 551.363 1054.49 551.363 1054.49 631.99 952.385 631.99 952.385 529.885 1028.08 529.885 1028.08 526.365 952.385 526.365 952.385 502.775 948.865 502.775 948.865 526.365 846.76 526.365 846.76 454.188 843.24 454.188 843.24 526.365 741.135 526.365 741.135 424.26 971.75 424.26 971.75 420.74 741.135 420.74 741.135 405.6 737.615 405.6 737.615 420.74 635.51 420.74 635.51 357.013 631.99 357.013 631.99 420.74 529.885 420.74 529.885 318.635 915.417 318.635 915.417 315.115 529.885 315.115 529.885 308.425 526.365 308.425 526.365 315.115 424.26 315.115 424.26 259.838 420.74 259.838 420.74 315.115 318.635 315.115 318.635 211.25 315.115 211.25 315.115 315.115 211.25 315.115 211.25 318.635 315.115 318.635 315.115 420.74 272.513 420.74 272.513 424.26 315.115 424.26 315.115 866.125 318.635 866.125 318.635 424.26 420.74 424.26 420.74 526.365 333.775 526.365 333.775 529.885 420.74 529.885 420.74 631.99 395.038 631.99 395.038 635.51 420.74 635.51 420.74 927.388 424.26 927.388 424.26 635.51 526.365 635.51 526.365 737.615 456.3 737.615 456.3 741.135 526.365 741.135 526.365 843.24 517.563 843.24 517.563 846.76 526.365 846.76 526.365 988.65 529.885 988.65 529.885 846.76 631.99 846.76 631.99 948.865 578.825 948.865 578.825 952.385 631.99 952.385 631.99 1049.91 635.51 1049.91 635.51 952.385 737.615 952.385 737.615 1054.49 640.088 1054.49 640.088 1058.01 737.615 1058.01 737.615 1111.18 741.135 1111.18 741.135 1058.01 843.24 1058.01 843.24 1160.11 701.35 1160.11 701.35 1163.64 843.24 1163.64 843.24 1172.44 846.76 1172.44 846.76 1163.64 948.865 1163.64 948.865 1233.7 952.385 1233.7 952.385 1163.64 1054.49 1163.64 1054.49 1265.74 762.613 1265.74 762.613 1269.26 1054.49 1269.26 1054.49 1294.96 1058.01 1294.96 1058.01 1269.26 1160.11 1269.26 1160.11 1356.23 1163.64 1356.23 1163.64 1269.26 1265.74 1269.26 1265.74 1371.36 823.875 1371.36 823.875 1374.89 1265.74 1374.89 1265.74 1417.49 1269.26 1417.49 1269.26 1374.89 1371.36 1374.89 1371.36 1478.75 1374.89 1478.75 1374.89 1374.89 1478.75 1374.89 1478.75 1371.36ZM1265.74 1058.01 1265.74 1160.11 1163.64 1160.11 1163.64 1058.01 1265.74 1058.01ZM1160.11 1160.11 1058.01 1160.11 1058.01 1058.01 1160.11 1058.01 1160.11 1160.11ZM1160.11 1054.49 1058.01 1054.49 1058.01 952.385 1160.11 952.385 1160.11 1054.49ZM635.51 529.885 737.615 529.885 737.615 631.99 635.51 631.99 635.51 529.885ZM631.99 631.99 529.885 631.99 529.885 529.885 631.99 529.885 631.99 631.99ZM737.615 635.51 737.615 737.615 635.51 737.615 635.51 635.51 737.615 635.51ZM846.76 737.615 846.76 635.51 948.865 635.51 948.865 737.615 846.76 737.615ZM948.865 741.135 948.865 843.24 846.76 843.24 846.76 741.135 948.865 741.135ZM843.24 737.615 741.135 737.615 741.135 635.51 843.24 635.51 843.24 737.615ZM737.615 741.135 737.615 843.24 635.51 843.24 635.51 741.135 737.615 741.135ZM741.135 741.135 843.24 741.135 843.24 843.24 741.135 843.24 741.135 741.135ZM843.24 846.76 843.24 948.865 741.135 948.865 741.135 846.76 843.24 846.76ZM846.76 846.76 948.865 846.76 948.865 948.865 846.76 948.865 846.76 846.76ZM952.385 846.76 1054.49 846.76 1054.49 948.865 952.385 948.865 952.385 846.76ZM948.865 952.385 948.865 1054.49 846.76 1054.49 846.76 952.385 948.865 952.385ZM952.385 952.385 1054.49 952.385 1054.49 1054.49 952.385 1054.49 952.385 952.385ZM1160.11 846.76 1160.11 948.865 1058.01 948.865 1058.01 846.76 1160.11 846.76ZM1054.49 843.24 952.385 843.24 952.385 741.135 1054.49 741.135 1054.49 843.24ZM1054.49 635.51 1054.49 737.615 952.385 737.615 952.385 635.51 1054.49 635.51ZM948.865 529.885 948.865 631.99 846.76 631.99 846.76 529.885 948.865 529.885ZM843.24 529.885 843.24 631.99 741.135 631.99 741.135 529.885 843.24 529.885ZM737.615 424.26 737.615 526.365 635.51 526.365 635.51 424.26 737.615 424.26ZM631.99 424.26 631.99 526.365 529.885 526.365 529.885 424.26 631.99 424.26ZM526.365 318.635 526.365 420.74 424.26 420.74 424.26 318.635 526.365 318.635ZM318.635 420.74 318.635 318.635 420.74 318.635 420.74 420.74 318.635 420.74ZM424.26 424.26 526.365 424.26 526.365 526.365 424.26 526.365 424.26 424.26ZM424.26 631.99 424.26 529.885 526.365 529.885 526.365 631.99 424.26 631.99ZM529.885 635.51 631.99 635.51 631.99 737.615 529.885 737.615 529.885 635.51ZM529.885 843.24 529.885 741.135 631.99 741.135 631.99 843.24 529.885 843.24ZM635.51 948.865 635.51 846.76 737.615 846.76 737.615 948.865 635.51 948.865ZM741.135 1054.49 741.135 952.385 843.24 952.385 843.24 1054.49 741.135 1054.49ZM846.76 1160.11 846.76 1058.01 948.865 1058.01 948.865 1160.11 846.76 1160.11ZM952.385 1160.11 952.385 1058.01 1054.49 1058.01 1054.49 1160.11 952.385 1160.11ZM1058.01 1265.74 1058.01 1163.64 1160.11 1163.64 1160.11 1265.74 1058.01 1265.74ZM1163.64 1265.74 1163.64 1163.64 1265.74 1163.64 1265.74 1265.74 1163.64 1265.74ZM1269.26 1371.36 1269.26 1269.26 1371.36 1269.26 1371.36 1371.36 1269.26 1371.36Z" fill="#E6E6E6" transform="matrix(1 0 0 1.00059 1359 458)"/><path d="M624.149 473.517C624.149 490.88 610.073 504.956 592.709 504.956 575.346 504.956 561.27 490.88 561.27 473.517 561.27 456.154 575.346 442.078 592.709 442.078 610.073 442.078 624.149 456.154 624.149 473.517Z" fill="#D2D2D2" transform="matrix(1 0 0 1.00059 1359 458)"/><path d="M1246.38 1313.02C1246.38 1330.39 1232.3 1344.46 1214.94 1344.46 1197.57 1344.46 1183.5 1330.39 1183.5 1313.02 1183.5 1295.66 1197.57 1281.58 1214.94 1281.58 1232.3 1281.58 1246.38 1295.66 1246.38 1313.02Z" fill="#F2F2F2" transform="matrix(1 0 0 1.00059 1359 458)"/><path d="M1246.38 898.061C1246.38 915.424 1232.3 929.5 1214.94 929.5 1197.57 929.5 1183.5 915.424 1183.5 898.061 1183.5 880.697 1197.57 866.622 1214.94 866.622 1232.3 866.622 1246.38 880.697 1246.38 898.061Z" fill="#D2D2D2" transform="matrix(1 0 0 1.00059 1359 458)"/><path d="M1140.25 1109.31C1140.25 1126.67 1126.18 1140.75 1108.81 1140.75 1091.45 1140.75 1077.38 1126.67 1077.38 1109.31 1077.38 1091.95 1091.45 1077.87 1108.81 1077.87 1126.18 1077.87 1140.25 1091.95 1140.25 1109.31Z" fill="#737373" transform="matrix(1 0 0 1.00059 1359 458)"/><path d="M872.67 1165.15C872.67 1182.51 858.594 1196.59 841.231 1196.59 823.868 1196.59 809.792 1182.51 809.792 1165.15 809.792 1147.78 823.868 1133.71 841.231 1133.71 858.594 1133.71 872.67 1147.78 872.67 1165.15Z" fill="#737373" transform="matrix(1 0 0 1.00059 1359 458)"/><path d="M879.712 580.689C879.712 598.053 865.636 612.129 848.273 612.129 830.909 612.129 816.833 598.053 816.833 580.689 816.833 563.326 830.909 549.25 848.273 549.25 865.636 549.25 879.712 563.326 879.712 580.689Z" fill="#F2F2F2" transform="matrix(1 0 0 1.00059 1359 458)"/><path d="M823.875 686.811C823.875 704.174 809.799 718.25 792.436 718.25 775.072 718.25 760.997 704.174 760.997 686.811 760.997 669.447 775.072 655.371 792.436 655.371 809.799 655.371 823.875 669.447 823.875 686.811Z" fill="#737373" transform="matrix(1 0 0 1.00059 1359 458)"/><path d="M295.259 581.18C295.259 598.544 281.183 612.62 263.82 612.62 246.456 612.62 232.38 598.544 232.38 581.18 232.38 563.817 246.456 549.741 263.82 549.741 281.183 549.741 295.259 563.817 295.259 581.18Z" fill="#F2F2F2" transform="matrix(1 0 0 1.00059 1359 458)"/><path d="M556.286 637.514C556.286 654.877 542.211 668.953 524.847 668.953 507.484 668.953 493.408 654.877 493.408 637.514 493.408 620.15 507.484 606.075 524.847 606.075 542.211 606.075 556.286 620.15 556.286 637.514Z" fill="#505050" transform="matrix(1 0 0 1.00059 1359 458)"/><path d="M985.828 637.028C985.828 654.391 971.752 668.467 954.389 668.467 937.025 668.467 922.95 654.391 922.95 637.028 922.95 619.665 937.025 605.589 954.389 605.589 971.752 605.589 985.828 619.665 985.828 637.028Z" fill="#F2F2F2" transform="matrix(1 0 0 1.00059 1359 458)"/><path d="M1151.65 776.368C1151.65 793.732 1137.57 807.808 1120.21 807.808 1102.84 807.808 1088.77 793.732 1088.77 776.368 1088.77 759.005 1102.84 744.929 1120.21 744.929 1137.57 744.929 1151.65 759.005 1151.65 776.368Z" fill="#505050" transform="matrix(1 0 0 1.00059 1359 458)"/><path d="M1034.07 1069.63C1034.07 1086.99 1019.99 1101.07 1002.63 1101.07 985.266 1101.07 971.19 1086.99 971.19 1069.63 971.19 1052.27 985.266 1038.19 1002.63 1038.19 1019.99 1038.19 1034.07 1052.27 1034.07 1069.63Z" fill="#F2F2F2" transform="matrix(1 0 0 1.00059 1359 458)"/><path d="M489.963 821.148C489.963 838.512 475.887 852.587 458.523 852.587 441.16 852.587 427.084 838.512 427.084 821.148 427.084 803.785 441.16 789.709 458.523 789.709 475.887 789.709 489.963 803.785 489.963 821.148Z" fill="#505050" transform="matrix(1 0 0 1.00059 1359 458)"/><path d="M401.37 475.07C401.37 492.433 387.294 506.509 369.93 506.509 352.567 506.509 338.491 492.433 338.491 475.07 338.491 457.706 352.567 443.63 369.93 443.63 387.294 443.63 401.37 457.706 401.37 475.07Z" fill="#737373" transform="matrix(1 0 0 1.00059 1359 458)"/><path d="M828.5 945.096C828.5 962.459 814.424 976.535 797.06 976.535 779.697 976.535 765.621 962.459 765.621 945.096 765.621 927.732 779.697 913.656 797.06 913.656 814.424 913.656 828.5 927.732 828.5 945.096Z" fill="#D2D2D2" transform="matrix(1 0 0 1.00059 1359 458)"/><path d="M1042.17 729.061C1042.17 746.424 1028.09 760.5 1010.73 760.5 993.364 760.5 979.288 746.424 979.288 729.061 979.288 711.697 993.364 697.621 1010.73 697.621 1028.09 697.621 1042.17 711.697 1042.17 729.061Z" fill="#505050" transform="matrix(1 0 0 1.00059 1359 458)"/><path d="M985.693 913.658C985.693 931.022 971.617 945.097 954.253 945.097 936.89 945.097 922.814 931.022 922.814 913.658 922.814 896.295 936.89 882.219 954.253 882.219 971.617 882.219 985.693 896.295 985.693 913.658Z" fill="#D2D2D2" transform="matrix(1 0 0 1.00059 1359 458)"/><path d="M1098.5 874.802C1098.5 883.483 1091.46 890.521 1082.78 890.521 1074.1 890.521 1067.06 883.483 1067.06 874.802 1067.06 866.121 1074.1 859.083 1082.78 859.083 1091.46 859.083 1098.5 866.121 1098.5 874.802Z" fill="#505050" transform="matrix(1 0 0 1.00059 1359 458)"/><path d="M894.292 772.948C894.292 781.629 887.254 788.667 878.573 788.667 869.892 788.667 862.854 781.629 862.854 772.948 862.854 764.267 869.892 757.229 878.573 757.229 887.254 757.229 894.292 764.267 894.292 772.948Z" fill="#505050" transform="matrix(1 0 0 1.00059 1359 458)"/><path d="M1095.73 662.149C1095.73 670.83 1088.69 677.868 1080.01 677.868 1071.33 677.868 1064.29 670.83 1064.29 662.149 1064.29 653.468 1071.33 646.43 1080.01 646.43 1088.69 646.43 1095.73 653.468 1095.73 662.149Z" fill="#F2F2F2" transform="matrix(1 0 0 1.00059 1359 458)"/><path d="M788.667 1075.74C788.667 1084.42 781.629 1091.46 772.948 1091.46 764.267 1091.46 757.229 1084.42 757.229 1075.74 757.229 1067.06 764.267 1060.02 772.948 1060.02 781.629 1060.02 788.667 1067.06 788.667 1075.74Z" fill="#505050" transform="matrix(1 0 0 1.00059 1359 458)"/><path d="M830.917 1001.55C830.917 1010.23 823.879 1017.27 815.198 1017.27 806.517 1017.27 799.479 1010.23 799.479 1001.55 799.479 992.871 806.517 985.833 815.198 985.833 823.879 985.833 830.917 992.871 830.917 1001.55Z" fill="#505050" transform="matrix(1 0 0 1.00059 1359 458)"/><path d="M932.771 1022.68C932.771 1031.36 925.733 1038.4 917.052 1038.4 908.371 1038.4 901.333 1031.36 901.333 1022.68 901.333 1014 908.371 1006.96 917.052 1006.96 925.733 1006.96 932.771 1014 932.771 1022.68Z" fill="#505050" transform="matrix(1 0 0 1.00059 1359 458)"/><path d="M615.896 705.802C615.896 714.483 608.858 721.521 600.177 721.521 591.496 721.521 584.458 714.483 584.458 705.802 584.458 697.121 591.496 690.083 600.177 690.083 608.858 690.083 615.896 697.121 615.896 705.802Z" fill="#505050" transform="matrix(1 0 0 1.00059 1359 458)"/><path d="M830.917 815.198C830.917 823.879 823.879 830.917 815.198 830.917 806.517 830.917 799.479 823.879 799.479 815.198 799.479 806.517 806.517 799.479 815.198 799.479 823.879 799.479 830.917 806.517 830.917 815.198Z" fill="#505050" transform="matrix(1 0 0 1.00059 1359 458)"/></g></g></g></g></svg>