<svg width="372" height="450" xmlns="http://www.w3.org/2000/svg" xmlns:xlink="http://www.w3.org/1999/xlink" xml:space="preserve" overflow="hidden"><g transform="translate(-429 -1070)"><path d="M445.659 1169.18C456.993 1112.31 511.461 1075.23 567.317 1086.36 623.174 1097.49 659.266 1152.62 647.932 1209.49 636.598 1266.36 582.13 1303.44 526.274 1292.31 470.418 1281.18 434.326 1226.05 445.659 1169.18Z" stroke="#FFFFFF" stroke-width="27.5" stroke-miterlimit="8" fill="#FFC000" fill-rule="evenodd"/><path d="M582.276 1272.48C593.61 1215.61 648.078 1178.53 703.934 1189.66 759.79 1200.79 795.882 1255.92 784.548 1312.79 773.215 1369.66 718.747 1406.74 662.891 1395.61 607.035 1384.48 570.942 1329.35 582.276 1272.48Z" stroke="#FFFFFF" stroke-width="27.5" stroke-miterlimit="8" fill="#104862" fill-rule="evenodd"/><path d="M446.785 1380.58C458.119 1323.7 512.587 1286.62 568.443 1297.76 624.299 1308.89 660.392 1364.01 649.058 1420.89 637.724 1477.76 583.256 1514.84 527.4 1503.71 471.544 1492.57 435.452 1437.45 446.785 1380.58Z" stroke="#FFFFFF" stroke-width="27.5" stroke-miterlimit="8" fill="#FFC000" fill-rule="evenodd"/></g></svg>