<svg width="2203" height="2203" xmlns="http://www.w3.org/2000/svg" xmlns:xlink="http://www.w3.org/1999/xlink" xml:space="preserve" overflow="hidden"><g transform="translate(-1142 -139)"><path d="M1237.48 1240.69C1237.48 685.076 1687.43 234.688 2242.48 234.688 2797.52 234.688 3247.48 685.076 3247.48 1240.69 3247.48 1796.3 2797.52 2246.69 2242.48 2246.69 1687.43 2246.69 1237.48 1796.3 1237.48 1240.69Z" stroke="#FFFFFF" stroke-width="190.208" stroke-miterlimit="8" fill="#FFFFFF" fill-rule="evenodd"/><path d="M1676.79 772.53C1719.59 557.664 1925.41 417.57 2136.46 459.608 2347.5 501.681 2483.87 709.952 2441.07 924.818 2398.24 1139.68 2192.41 1279.74 1981.37 1237.7 1770.33 1195.63 1633.96 987.361 1676.79 772.53Z" stroke="#FFFFFF" stroke-width="94.5314" stroke-miterlimit="8" fill="#FFC000" fill-rule="evenodd"/><path d="M2233.79 1175.5C2276.68 960.665 2482.77 820.57 2694.08 862.609 2905.39 904.682 3041.94 1112.95 2999.05 1327.82 2956.19 1542.65 2750.11 1682.74 2538.79 1640.71 2327.48 1598.63 2190.94 1390.36 2233.79 1175.5Z" stroke="#FFFFFF" stroke-width="94.5314" stroke-miterlimit="8" fill="#104862" fill-rule="evenodd"/><path d="M1684.79 1600.92C1727.68 1385.78 1933.73 1245.5 2145.08 1287.63 2356.39 1329.72 2492.94 1538.26 2450.05 1753.4 2407.19 1968.54 2201.11 2108.81 1989.79 2066.69 1778.48 2024.59 1641.94 1816.06 1684.79 1600.92Z" stroke="#FFFFFF" stroke-width="94.5314" stroke-miterlimit="8" fill="#FFC000" fill-rule="evenodd"/></g></svg>